<?xml version="1.0" encoding="UTF-8"?>
<!--Generated by Tools/mdi-to-symbolset/mdi-to-symbolset.py-->
<svg version="1.1" xmlns="http://www.w3.org/2000/svg" xmlns:xlink="http://www.w3.org/1999/xlink" width="3300" height="2200">
 <g id="Notes">
  <rect id="artboard" style="fill:white;opacity:1" x="0" y="0" width="3300" height="2200"/>
  <text id="template-version" style="stroke:none;fill:black;font-family:sans-serif;font-size:13;text-anchor:end;" transform="matrix(1 0 0 1 3036 1933)">Template v.3.0</text>
  <text id="descriptive-name" style="stroke:none;fill:black;font-family:sans-serif;font-size:13;text-anchor:end;" transform="matrix(1 0 0 1 3036 1969)">Generated from mdi/cog</text>
  <text style="stroke:none;fill:black;font-family:sans-serif;font-size:13;text-anchor:middle;" transform="matrix(1 0 0 1 559.711 322)">Ultralight</text>
  <text style="stroke:none;fill:black;font-family:sans-serif;font-size:13;text-anchor:middle;" transform="matrix(1 0 0 1 1449.84 322)">Regular</text>
  <text style="stroke:none;fill:black;font-family:sans-serif;font-size:13;text-anchor:middle;" transform="matrix(1 0 0 1 2933.4 322)">Black</text>
  <text style="stroke:none;fill:black;font-family:sans-serif;font-size:13;" transform="matrix(1 0 0 1 263 726)">Small</text>
  <text style="stroke:none;fill:black;font-family:sans-serif;font-size:13;" transform="matrix(1 0 0 1 263 1156)">Medium</text>
  <text style="stroke:none;fill:black;font-family:sans-serif;font-size:13;" transform="matrix(1 0 0 1 263 1586)">Large</text>
 </g>
 <g id="Guides">
  <line id="Baseline-S" style="fill:none;stroke:#27AAE1;opacity:1;stroke-width:0.577;" x1="263" x2="3036" y1="696" y2="696"/>
  <line id="Capline-S" style="fill:none;stroke:#27AAE1;opacity:1;stroke-width:0.577;" x1="263" x2="3036" y1="625.541" y2="625.541"/>
  <line id="Baseline-M" style="fill:none;stroke:#27AAE1;opacity:1;stroke-width:0.577;" x1="263" x2="3036" y1="1126" y2="1126"/>
  <line id="Capline-M" style="fill:none;stroke:#27AAE1;opacity:1;stroke-width:0.577;" x1="263" x2="3036" y1="1055.54" y2="1055.54"/>
  <line id="Baseline-L" style="fill:none;stroke:#27AAE1;opacity:1;stroke-width:0.577;" x1="263" x2="3036" y1="1556" y2="1556"/>
  <line id="Capline-L" style="fill:none;stroke:#27AAE1;opacity:1;stroke-width:0.577;" x1="263" x2="3036" y1="1485.54" y2="1485.54"/>
  <line id="left-margin-Ultralight-S" style="fill:none;stroke:#00AEEF;stroke-width:0.5;opacity:1.0;" x1="512.6891" x2="512.6891" y1="600.785" y2="720.121"/>
  <line id="right-margin-Ultralight-S" style="fill:none;stroke:#00AEEF;stroke-width:0.5;opacity:1.0;" x1="606.7329" x2="606.7329" y1="600.785" y2="720.121"/>
  <line id="left-margin-Regular-S" style="fill:none;stroke:#00AEEF;stroke-width:0.5;opacity:1.0;" x1="1402.8181" x2="1402.8181" y1="600.785" y2="720.121"/>
  <line id="right-margin-Regular-S" style="fill:none;stroke:#00AEEF;stroke-width:0.5;opacity:1.0;" x1="1496.8619" x2="1496.8619" y1="600.785" y2="720.121"/>
  <line id="left-margin-Black-S" style="fill:none;stroke:#00AEEF;stroke-width:0.5;opacity:1.0;" x1="2886.3781" x2="2886.3781" y1="600.785" y2="720.121"/>
  <line id="right-margin-Black-S" style="fill:none;stroke:#00AEEF;stroke-width:0.5;opacity:1.0;" x1="2980.4219" x2="2980.4219" y1="600.785" y2="720.121"/>
 </g>
 <g id="Symbols">
  <g id="Ultralight-S" transform="matrix(1 0 0 1 512.6891 696)">
   <path d="M 47.0219 -21.5148 A 13.7147 13.7147 0 0 1 33.3072 -35.2295 A 13.7147 13.7147 0 0 1 47.0219 -48.9442 A 13.7147 13.7147 0 0 1 60.7367 -35.2295 A 13.7147 13.7147 0 0 1 47.0219 -21.5148 M 76.1364 -31.4286 C 76.2931 -32.6825 76.4107 -33.9364 76.4107 -35.2295 C 76.4107 -36.5226 76.2931 -37.8157 76.1364 -39.148 L 84.4044 -45.5351 C 85.1489 -46.1229 85.3448 -47.1809 84.8746 -48.043 L 77.0376 -61.601 C 76.5674 -62.463 75.5094 -62.8157 74.6473 -62.463 L 64.8903 -58.5445 C 62.8527 -60.0728 60.7367 -61.405 58.268 -62.3847 L 56.8182 -72.7687 C 56.6614 -73.7091 55.8386 -74.4145 54.8589 -74.4145 H 39.185 C 38.2053 -74.4145 37.3824 -73.7091 37.2257 -72.7687 L 35.7759 -62.3847 C 33.3072 -61.405 31.1912 -60.0728 29.1536 -58.5445 L 19.3966 -62.463 C 18.5345 -62.8157 17.4765 -62.463 17.0063 -61.601 L 9.1693 -48.043 C 8.6599 -47.1809 8.895 -46.1229 9.6395 -45.5351 L 17.9075 -39.148 C 17.7508 -37.8157 17.6332 -36.5226 17.6332 -35.2295 C 17.6332 -33.9364 17.7508 -32.6825 17.9075 -31.4286 L 9.6395 -24.9239 C 8.895 -24.3361 8.6599 -23.2781 9.1693 -22.416 L 17.0063 -8.858 C 17.4765 -7.996 18.5345 -7.6825 19.3966 -7.996 L 29.1536 -11.9536 C 31.1912 -10.3862 33.3072 -9.054 35.7759 -8.0743 L 37.2257 2.3097 C 37.3824 3.2501 38.2053 3.9555 39.185 3.9555 H 54.8589 C 55.8386 3.9555 56.6614 3.2501 56.8182 2.3097 L 58.268 -8.0743 C 60.7367 -9.0931 62.8527 -10.3862 64.8903 -11.9536 L 74.6473 -7.996 C 75.5094 -7.6825 76.5674 -7.996 77.0376 -8.858 L 84.8746 -22.416 C 85.3448 -23.2781 85.1489 -24.3361 84.4044 -24.9239 L 76.1364 -31.4286 Z"/>
  </g>
  <g id="Regular-S" transform="matrix(1 0 0 1 1402.8181 696)">
   <path d="M 47.0219 -21.5148 A 13.7147 13.7147 0 0 1 33.3072 -35.2295 A 13.7147 13.7147 0 0 1 47.0219 -48.9442 A 13.7147 13.7147 0 0 1 60.7367 -35.2295 A 13.7147 13.7147 0 0 1 47.0219 -21.5148 M 76.1364 -31.4286 C 76.2931 -32.6825 76.4107 -33.9364 76.4107 -35.2295 C 76.4107 -36.5226 76.2931 -37.8157 76.1364 -39.148 L 84.4044 -45.5351 C 85.1489 -46.1229 85.3448 -47.1809 84.8746 -48.043 L 77.0376 -61.601 C 76.5674 -62.463 75.5094 -62.8157 74.6473 -62.463 L 64.8903 -58.5445 C 62.8527 -60.0728 60.7367 -61.405 58.268 -62.3847 L 56.8182 -72.7687 C 56.6614 -73.7091 55.8386 -74.4145 54.8589 -74.4145 H 39.185 C 38.2053 -74.4145 37.3824 -73.7091 37.2257 -72.7687 L 35.7759 -62.3847 C 33.3072 -61.405 31.1912 -60.0728 29.1536 -58.5445 L 19.3966 -62.463 C 18.5345 -62.8157 17.4765 -62.463 17.0063 -61.601 L 9.1693 -48.043 C 8.6599 -47.1809 8.895 -46.1229 9.6395 -45.5351 L 17.9075 -39.148 C 17.7508 -37.8157 17.6332 -36.5226 17.6332 -35.2295 C 17.6332 -33.9364 17.7508 -32.6825 17.9075 -31.4286 L 9.6395 -24.9239 C 8.895 -24.3361 8.6599 -23.2781 9.1693 -22.416 L 17.0063 -8.858 C 17.4765 -7.996 18.5345 -7.6825 19.3966 -7.996 L 29.1536 -11.9536 C 31.1912 -10.3862 33.3072 -9.054 35.7759 -8.0743 L 37.2257 2.3097 C 37.3824 3.2501 38.2053 3.9555 39.185 3.9555 H 54.8589 C 55.8386 3.9555 56.6614 3.2501 56.8182 2.3097 L 58.268 -8.0743 C 60.7367 -9.0931 62.8527 -10.3862 64.8903 -11.9536 L 74.6473 -7.996 C 75.5094 -7.6825 76.5674 -7.996 77.0376 -8.858 L 84.8746 -22.416 C 85.3448 -23.2781 85.1489 -24.3361 84.4044 -24.9239 L 76.1364 -31.4286 Z"/>
  </g>
  <g id="Black-S" transform="matrix(1 0 0 1 2886.3781 696)">
   <path d="M 47.0219 -21.5148 A 13.7147 13.7147 0 0 1 33.3072 -35.2295 A 13.7147 13.7147 0 0 1 47.0219 -48.9442 A 13.7147 13.7147 0 0 1 60.7367 -35.2295 A 13.7147 13.7147 0 0 1 47.0219 -21.5148 M 76.1364 -31.4286 C 76.2931 -32.6825 76.4107 -33.9364 76.4107 -35.2295 C 76.4107 -36.5226 76.2931 -37.8157 76.1364 -39.148 L 84.4044 -45.5351 C 85.1489 -46.1229 85.3448 -47.1809 84.8746 -48.043 L 77.0376 -61.601 C 76.5674 -62.463 75.5094 -62.8157 74.6473 -62.463 L 64.8903 -58.5445 C 62.8527 -60.0728 60.7367 -61.405 58.268 -62.3847 L 56.8182 -72.7687 C 56.6614 -73.7091 55.8386 -74.4145 54.8589 -74.4145 H 39.185 C 38.2053 -74.4145 37.3824 -73.7091 37.2257 -72.7687 L 35.7759 -62.3847 C 33.3072 -61.405 31.1912 -60.0728 29.1536 -58.5445 L 19.3966 -62.463 C 18.5345 -62.8157 17.4765 -62.463 17.0063 -61.601 L 9.1693 -48.043 C 8.6599 -47.1809 8.895 -46.1229 9.6395 -45.5351 L 17.9075 -39.148 C 17.7508 -37.8157 17.6332 -36.5226 17.6332 -35.2295 C 17.6332 -33.9364 17.7508 -32.6825 17.9075 -31.4286 L 9.6395 -24.9239 C 8.895 -24.3361 8.6599 -23.2781 9.1693 -22.416 L 17.0063 -8.858 C 17.4765 -7.996 18.5345 -7.6825 19.3966 -7.996 L 29.1536 -11.9536 C 31.1912 -10.3862 33.3072 -9.054 35.7759 -8.0743 L 37.2257 2.3097 C 37.3824 3.2501 38.2053 3.9555 39.185 3.9555 H 54.8589 C 55.8386 3.9555 56.6614 3.2501 56.8182 2.3097 L 58.268 -8.0743 C 60.7367 -9.0931 62.8527 -10.3862 64.8903 -11.9536 L 74.6473 -7.996 C 75.5094 -7.6825 76.5674 -7.996 77.0376 -8.858 L 84.8746 -22.416 C 85.3448 -23.2781 85.1489 -24.3361 84.4044 -24.9239 L 76.1364 -31.4286 Z"/>
  </g>
 </g>
</svg>
